<?xml version="1.0" encoding="utf-8"?>
<!-- Generator: Adobe Illustrator 24.0.0, SVG Export Plug-In . SVG Version: 6.00 Build 0)  -->
<svg version="1.1" id="图层_1" xmlns="http://www.w3.org/2000/svg" xmlns:xlink="http://www.w3.org/1999/xlink" x="0px" y="0px"
	 viewBox="0 0 841.89 595.28" style="enable-background:new 0 0 841.89 595.28;" xml:space="preserve">
<style type="text/css">
	.st0{fill-rule:evenodd;clip-rule:evenodd;fill:#FFC000;}
	.st1{font-family:'DengXian';}
	.st2{font-size:28.0332px;}
	.st3{fill-rule:evenodd;clip-rule:evenodd;fill:#92D050;}
	.st4{font-size:24.8561px;}
	.st5{fill-rule:evenodd;clip-rule:evenodd;fill:#29A8FF;}
	.st6{fill:none;stroke:#000000;stroke-width:0.96;stroke-miterlimit:8;}
	.st7{fill-rule:evenodd;clip-rule:evenodd;}
	.st8{font-family:'DengXian-Bold';}
	.st9{fill:none;stroke:#5B9BD5;stroke-width:1.56;stroke-miterlimit:8;stroke-dasharray:79248,59436;}
</style>
<g>
	<polygon class="st0" points="83.98,524.98 279.09,524.98 279.09,588.52 83.98,588.52 83.98,524.98 	"/>
	<text transform="matrix(1 0 0 1 125.0439 566.0996)"><tspan x="0" y="0" class="st1 st2">h</tspan><tspan x="15.51" y="0" class="st1 st2">a</tspan><tspan x="29.55" y="0" class="st1 st2">r</tspan><tspan x="39.08" y="0" class="st1 st2">dwa</tspan><tspan x="88.84" y="0" class="st1 st2">r</tspan><tspan x="98.37" y="0" class="st1 st2">e</tspan></text>
	<polygon class="st0" points="307.12,524.98 502.23,524.98 502.23,588.52 307.12,588.52 307.12,524.98 	"/>
	<text transform="matrix(1 0 0 1 348.2266 566.0996)"><tspan x="0" y="0" class="st1 st2">h</tspan><tspan x="15.51" y="0" class="st1 st2">a</tspan><tspan x="29.55" y="0" class="st1 st2">r</tspan><tspan x="39.08" y="0" class="st1 st2">dwa</tspan><tspan x="88.84" y="0" class="st1 st2">r</tspan><tspan x="98.37" y="0" class="st1 st2">e</tspan></text>
	<polygon class="st0" points="557.18,524.98 752.47,524.98 752.47,588.52 557.18,588.52 557.18,524.98 	"/>
	<text transform="matrix(1 0 0 1 598.3721 566.0996)"><tspan x="0" y="0" class="st1 st2">h</tspan><tspan x="15.51" y="0" class="st1 st2">a</tspan><tspan x="29.55" y="0" class="st1 st2">r</tspan><tspan x="39.08" y="0" class="st1 st2">dwa</tspan><tspan x="88.84" y="0" class="st1 st2">r</tspan><tspan x="98.37" y="0" class="st1 st2">e</tspan></text>
	<polygon class="st3" points="83.98,411.73 279.09,411.73 279.09,475.45 83.98,475.45 83.98,411.73 	"/>
	<text transform="matrix(1 0 0 1 150.1211 437.3232)"><tspan x="0" y="0" class="st1 st2">G</tspan><tspan x="19.06" y="0" class="st1 st2">P</tspan><tspan x="34.55" y="0" class="st1 st2">IO</tspan></text>
	<text transform="matrix(1 0 0 1 118.3525 462.168)"><tspan x="0" y="0" class="st1 st2">Ud</tspan><tspan x="34.81" y="0" class="st1 st2">r</tspan><tspan x="44.34" y="0" class="st1 st2">i</tspan><tspan x="50.69" y="0" class="st1 st2">ve</tspan><tspan x="78.15" y="0" class="st1 st2">r</tspan><tspan x="87.68" y="0" class="st1 st2"> </tspan></text>
	<text transform="matrix(1 0 0 1 213.4756 462.168)" class="st1 st2">(</text>
	<text transform="matrix(1 0 0 1 221.7012 462.168)" class="st1 st2">0)</text>
	<polygon class="st3" points="307.12,411.73 502.23,411.73 502.23,475.45 307.12,475.45 307.12,411.73 	"/>
	<text transform="matrix(1 0 0 1 373.2666 437.3232)"><tspan x="0" y="0" class="st1 st2">G</tspan><tspan x="19.06" y="0" class="st1 st2">P</tspan><tspan x="34.55" y="0" class="st1 st2">IO</tspan></text>
	<text transform="matrix(1 0 0 1 341.499 462.168)"><tspan x="0" y="0" class="st1 st2">Ud</tspan><tspan x="34.81" y="0" class="st1 st2">r</tspan><tspan x="44.34" y="0" class="st1 st2">i</tspan><tspan x="50.69" y="0" class="st1 st2">ve</tspan><tspan x="78.15" y="0" class="st1 st2">r</tspan><tspan x="87.68" y="0" class="st1 st2"> </tspan></text>
	<text transform="matrix(1 0 0 1 436.6221 462.168)"><tspan x="0" y="0" class="st1 st2">(</tspan><tspan x="8.21" y="0" class="st1 st2">1)</tspan></text>
	<polygon class="st3" points="557.18,411.73 752.47,411.73 752.47,475.45 557.18,475.45 557.18,411.73 	"/>
	<text transform="matrix(1 0 0 1 623.4121 437.3232)"><tspan x="0" y="0" class="st1 st2">G</tspan><tspan x="19.06" y="0" class="st1 st2">P</tspan><tspan x="34.55" y="0" class="st1 st2">IO</tspan></text>
	<text transform="matrix(1 0 0 1 591.6426 462.168)"><tspan x="0" y="0" class="st1 st2">Ud</tspan><tspan x="34.81" y="0" class="st1 st2">r</tspan><tspan x="44.34" y="0" class="st1 st2">i</tspan><tspan x="50.69" y="0" class="st1 st2">ve</tspan><tspan x="78.15" y="0" class="st1 st2">r</tspan><tspan x="87.68" y="0" class="st1 st2"> </tspan></text>
	<text transform="matrix(1 0 0 1 686.7656 462.168)"><tspan x="0" y="0" class="st1 st2">(</tspan><tspan x="8.21" y="0" class="st1 st2">4)</tspan></text>
	<polygon class="st3" points="83.98,314.73 279.09,314.73 279.09,378.27 83.98,378.27 83.98,314.73 	"/>
	<text transform="matrix(1 0 0 1 150.1211 340.2773)"><tspan x="0" y="0" class="st1 st2">G</tspan><tspan x="19.06" y="0" class="st1 st2">P</tspan><tspan x="34.55" y="0" class="st1 st2">IO</tspan></text>
	<text transform="matrix(1 0 0 1 95.5508 365.1357)"><tspan x="0" y="0" class="st1 st4">U</tspan><tspan x="16.62" y="0" class="st1 st4">de</tspan><tspan x="43.56" y="0" class="st1 st4">v</tspan><tspan x="55.14" y="0" class="st1 st4">i</tspan><tspan x="60.72" y="0" class="st1 st4">c</tspan><tspan x="71.94" y="0" class="st1 st4">e</tspan><tspan x="84.66" y="0" class="st1 st4"> </tspan><tspan x="92.12" y="0" class="st1 st4">(</tspan><tspan x="99.4" y="0" class="st1 st4">b</tspan><tspan x="113.61" y="0" class="st1 st4">a</tspan><tspan x="126.11" y="0" class="st1 st4">n</tspan><tspan x="139.77" y="0" class="st1 st4">k</tspan><tspan x="151.53" y="0" class="st1 st4">0)</tspan></text>
	<polygon class="st3" points="307.12,314.73 502.23,314.73 502.23,378.27 307.12,378.27 307.12,314.73 	"/>
	<text transform="matrix(1 0 0 1 373.2666 340.2773)"><tspan x="0" y="0" class="st1 st2">G</tspan><tspan x="19.06" y="0" class="st1 st2">P</tspan><tspan x="34.55" y="0" class="st1 st2">IO</tspan></text>
	<text transform="matrix(1 0 0 1 318.6973 365.1357)"><tspan x="0" y="0" class="st1 st4">U</tspan><tspan x="16.62" y="0" class="st1 st4">de</tspan><tspan x="43.56" y="0" class="st1 st4">v</tspan><tspan x="55.14" y="0" class="st1 st4">i</tspan><tspan x="60.72" y="0" class="st1 st4">c</tspan><tspan x="71.94" y="0" class="st1 st4">e</tspan><tspan x="84.66" y="0" class="st1 st4"> </tspan><tspan x="92.12" y="0" class="st1 st4">(</tspan><tspan x="99.4" y="0" class="st1 st4">b</tspan><tspan x="113.61" y="0" class="st1 st4">a</tspan><tspan x="126.11" y="0" class="st1 st4">n</tspan><tspan x="139.77" y="0" class="st1 st4">k</tspan><tspan x="151.53" y="0" class="st1 st4">1)</tspan></text>
	<polygon class="st3" points="557.18,314.73 752.47,314.73 752.47,378.27 557.18,378.27 557.18,314.73 	"/>
	<text transform="matrix(1 0 0 1 623.4121 340.2773)"><tspan x="0" y="0" class="st1 st2">G</tspan><tspan x="19.06" y="0" class="st1 st2">P</tspan><tspan x="34.55" y="0" class="st1 st2">IO</tspan></text>
	<text transform="matrix(1 0 0 1 568.8418 365.1357)"><tspan x="0" y="0" class="st1 st4">U</tspan><tspan x="16.62" y="0" class="st1 st4">de</tspan><tspan x="43.56" y="0" class="st1 st4">v</tspan><tspan x="55.14" y="0" class="st1 st4">i</tspan><tspan x="60.72" y="0" class="st1 st4">c</tspan><tspan x="71.95" y="0" class="st1 st4">e</tspan><tspan x="84.66" y="0" class="st1 st4"> </tspan><tspan x="92.12" y="0" class="st1 st4">(</tspan><tspan x="99.4" y="0" class="st1 st4">b</tspan><tspan x="113.61" y="0" class="st1 st4">a</tspan><tspan x="126.11" y="0" class="st1 st4">n</tspan><tspan x="139.77" y="0" class="st1 st4">k</tspan><tspan x="151.53" y="0" class="st1 st4">4)</tspan></text>
	<polygon class="st3" points="307.12,213.44 502.23,213.44 502.23,276.98 307.12,276.98 307.12,213.44 	"/>
	<text transform="matrix(1 0 0 1 337.9443 251.3838)"><tspan x="0" y="0" class="st1 st2">G</tspan><tspan x="19.06" y="0" class="st1 st2">P</tspan><tspan x="34.55" y="0" class="st1 st2">I</tspan><tspan x="41.48" y="0" class="st1 st2">O</tspan><tspan x="62.76" y="0" class="st1 st2"> </tspan></text>
	<text transform="matrix(1 0 0 1 408.0166 251.3838)"><tspan x="0" y="0" class="st1 st4">uc</tspan><tspan x="24.89" y="0" class="st1 st4">l</tspan><tspan x="30.47" y="0" class="st1 st4">a</tspan><tspan x="42.98" y="0" class="st1 st4">ss</tspan></text>
	<polygon class="st3" points="307.12,116.44 502.23,116.44 502.23,180.17 307.12,180.17 307.12,116.44 	"/>
	<text transform="matrix(1 0 0 1 344.2969 154.5576)"><tspan x="0" y="0" class="st1 st2">G</tspan><tspan x="19.06" y="0" class="st1 st2">P</tspan><tspan x="34.55" y="0" class="st1 st2">I</tspan><tspan x="41.48" y="0" class="st1 st2">O</tspan><tspan x="62.76" y="0" class="st1 st2"> </tspan></text>
	<text transform="matrix(1 0 0 1 414.3799 154.5576)"><tspan x="0" y="0" class="st1 st4">C</tspan><tspan x="15.34" y="0" class="st1 st4">o</tspan><tspan x="29.56" y="0" class="st1 st4">re</tspan></text>
	<polygon class="st3" points="83.98,116.44 279.09,116.44 279.09,180.17 83.98,180.17 83.98,116.44 	"/>
	<text transform="matrix(1 0 0 1 163.1641 154.5576)"><tspan x="0" y="0" class="st1 st2">d</tspan><tspan x="16.1" y="0" class="st1 st2">t</tspan><tspan x="25.06" y="0" class="st1 st2">s</tspan></text>
	<polygon class="st3" points="557.18,213.44 752.47,213.44 752.47,276.98 557.18,276.98 557.18,213.44 	"/>
	<text transform="matrix(1 0 0 1 623.4121 238.9248)"><tspan x="0" y="0" class="st1 st2">G</tspan><tspan x="19.06" y="0" class="st1 st2">P</tspan><tspan x="34.55" y="0" class="st1 st2">IO</tspan></text>
	<text transform="matrix(1 0 0 1 589.21 263.7822)" class="st1 st4">u</text>
	<text transform="matrix(1 0 0 1 602.8486 263.7822)"><tspan x="0" y="0" class="st1 st4">c</tspan><tspan x="11.23" y="0" class="st1 st4">l</tspan><tspan x="16.81" y="0" class="st1 st4">a</tspan><tspan x="29.31" y="0" class="st1 st4">ss</tspan><tspan x="49.51" y="0" class="st1 st4"> </tspan><tspan x="56.59" y="0" class="st1 st4">d</tspan><tspan x="70.81" y="0" class="st1 st4">r</tspan><tspan x="79.24" y="0" class="st1 st4">i</tspan><tspan x="84.82" y="0" class="st1 st4">v</tspan><tspan x="96.4" y="0" class="st1 st4">e</tspan><tspan x="109.12" y="0" class="st1 st4">r</tspan></text>
	<polygon class="st5" points="307.12,5.43 502.23,5.43 502.23,69.16 307.12,69.16 307.12,5.43 	"/>
	<text transform="matrix(1 0 0 1 354.9551 31.0244)" class="st1 st4">上层调用</text>
	<text transform="matrix(1 0 0 1 351.9619 55.8936)"><tspan x="0" y="0" class="st1 st4">G</tspan><tspan x="16.82" y="0" class="st1 st4">P</tspan><tspan x="30.49" y="0" class="st1 st4">I</tspan><tspan x="36.65" y="0" class="st1 st4">O</tspan></text>
	<text transform="matrix(1 0 0 1 407.4688 55.8936)" class="st1 st4">接口</text>
	<line class="st6" x1="181.53" y1="475.45" x2="181.53" y2="511.03"/>
	<polygon class="st7" points="186.21,509.48 181.53,525.05 176.86,509.48 186.21,509.48 	"/>
	<line class="st6" x1="404.68" y1="475.45" x2="404.68" y2="511.03"/>
	<polygon class="st7" points="409.35,509.48 404.68,525.05 400.01,509.48 409.35,509.48 	"/>
	<line class="st6" x1="654.73" y1="475.45" x2="654.73" y2="511.03"/>
	<polygon class="st7" points="659.41,509.48 654.73,525.05 650.06,509.48 659.41,509.48 	"/>
	<line class="st6" x1="654.73" y1="378.27" x2="654.73" y2="397.68"/>
	<polygon class="st7" points="659.41,396.12 654.73,411.7 650.06,396.12 659.41,396.12 	"/>
	<line class="st6" x1="404.68" y1="378.27" x2="404.68" y2="397.68"/>
	<polygon class="st7" points="409.35,396.12 404.68,411.7 400.01,396.12 409.35,396.12 	"/>
	<line class="st6" x1="181.53" y1="378.27" x2="181.53" y2="397.68"/>
	<polygon class="st7" points="186.21,396.12 181.53,411.7 176.86,396.12 186.21,396.12 	"/>
	<line class="st6" x1="404.72" y1="276.98" x2="195.35" y2="312.38"/>
	<polygon class="st7" points="196.11,307.52 181.53,314.72 197.67,316.73 196.11,307.52 	"/>
	<line class="st6" x1="404.68" y1="276.98" x2="404.68" y2="300.7"/>
	<polygon class="st7" points="409.35,299.15 404.68,314.72 400.01,299.15 409.35,299.15 	"/>
	<line class="st6" x1="404.68" y1="276.98" x2="640.96" y2="312.63"/>
	<polygon class="st7" points="640.12,307.78 654.82,314.72 638.72,317.01 640.12,307.78 	"/>
	<line class="st6" x1="502.23" y1="245.21" x2="543.2" y2="245.21"/>
	<polygon class="st7" points="541.65,240.54 557.22,245.21 541.65,249.88 541.65,240.54 	"/>
	<line class="st6" x1="404.68" y1="180.17" x2="404.68" y2="199.38"/>
	<polygon class="st7" points="409.35,197.82 404.68,213.4 400.01,197.82 409.35,197.82 	"/>
	<line class="st6" x1="279.09" y1="148.4" x2="293.1" y2="148.4"/>
	<polygon class="st7" points="291.55,143.73 307.12,148.4 291.55,153.07 291.55,143.73 	"/>
	<line class="st6" x1="404.68" y1="69.16" x2="404.68" y2="102.59"/>
	<polygon class="st7" points="400,101.03 404.68,116.6 409.35,101.03 400,101.03 	"/>
	<text transform="matrix(1 0 0 1 518.251 355.6924)" class="st8 st2">…</text>
	<text transform="matrix(1 0 0 1 518.251 452.7266)" class="st8 st2">…</text>
	<text transform="matrix(1 0 0 1 518.251 565.9424)" class="st8 st2">…</text>
	<line class="st9" x1="73.23" y1="90" x2="767.59" y2="90"/>
	<line class="st9" x1="72.11" y1="499.1" x2="766.47" y2="499.1"/>
</g>
</svg>
